<svg width="219" height="55" viewBox="0 0 219 55" fill="none" xmlns="http://www.w3.org/2000/svg">
<path d="M0.445 43V6.271H22.334L21.433 12.472H9.137V22.224H19.843V28.425H9.137V43H0.445ZM32.9344 14.857V43H24.5604V14.857H32.9344ZM28.6944 0.0169974C30.1431 0.0169974 31.3267 0.476331 32.2454 1.395C33.1994 2.27833 33.6764 3.409 33.6764 4.787C33.6764 6.165 33.1994 7.31333 32.2454 8.232C31.3267 9.11533 30.1431 9.557 28.6944 9.557C27.2457 9.557 26.0621 9.11533 25.1434 8.232C24.2247 7.31333 23.7654 6.165 23.7654 4.787C23.7654 3.409 24.2247 2.27833 25.1434 1.395C26.0621 0.476331 27.2457 0.0169974 28.6944 0.0169974ZM46.9914 43.901C44.5534 43.901 42.6454 43.212 41.2674 41.834C39.9248 40.4207 39.2534 38.4243 39.2534 35.845V3.674L47.6274 2.773V35.527C47.6274 36.693 48.1044 37.276 49.0584 37.276C49.5531 37.276 50.0124 37.1877 50.4364 37.011L52.0794 42.947C50.5601 43.583 48.8641 43.901 46.9914 43.901ZM63.6268 14.857V43H55.2528V14.857H63.6268ZM59.3868 0.0169974C60.8355 0.0169974 62.0191 0.476331 62.9378 1.395C63.8918 2.27833 64.3688 3.409 64.3688 4.787C64.3688 6.165 63.8918 7.31333 62.9378 8.232C62.0191 9.11533 60.8355 9.557 59.3868 9.557C57.9381 9.557 56.7545 9.11533 55.8358 8.232C54.9171 7.31333 54.4578 6.165 54.4578 4.787C54.4578 3.409 54.9171 2.27833 55.8358 1.395C56.7545 0.476331 57.9381 0.0169974 59.3868 0.0169974ZM86.1108 13.956C89.6441 13.956 92.2765 15.2633 94.0078 17.878C95.7391 20.4927 96.6048 24.1497 96.6048 28.849C96.6048 31.7463 96.1455 34.3433 95.2268 36.64C94.3435 38.9013 93.0538 40.6857 91.3578 41.993C89.6618 43.265 87.6831 43.901 85.4218 43.901C82.5951 43.901 80.3161 42.9293 78.5848 40.986V53.865L70.2108 54.766V14.857H77.5778L78.0018 17.984C79.0971 16.606 80.3515 15.599 81.7648 14.963C83.1781 14.2917 84.6268 13.956 86.1108 13.956ZM82.8778 37.753C86.2345 37.753 87.9128 34.8203 87.9128 28.955C87.9128 25.6337 87.5418 23.337 86.7998 22.065C86.0578 20.7577 84.9448 20.104 83.4608 20.104C82.5068 20.104 81.6058 20.3867 80.7578 20.952C79.9451 21.5173 79.2208 22.33 78.5848 23.39V35.262C79.7155 36.9227 81.1465 37.753 82.8778 37.753ZM126.374 28.372C126.374 29.538 126.321 30.545 126.215 31.393H108.778C109.06 33.7603 109.732 35.421 110.792 36.375C111.852 37.329 113.318 37.806 115.191 37.806C116.321 37.806 117.417 37.6117 118.477 37.223C119.537 36.799 120.685 36.163 121.922 35.315L125.367 39.979C122.081 42.5937 118.424 43.901 114.396 43.901C109.838 43.901 106.34 42.5583 103.902 39.873C101.464 37.1877 100.245 33.5837 100.245 29.061C100.245 26.199 100.757 23.6373 101.782 21.376C102.806 19.0793 104.308 17.2773 106.287 15.97C108.265 14.6273 110.633 13.956 113.389 13.956C117.452 13.956 120.632 15.228 122.929 17.772C125.225 20.316 126.374 23.8493 126.374 28.372ZM118.159 25.987C118.088 21.6763 116.569 19.521 113.601 19.521C112.152 19.521 111.021 20.051 110.209 21.111C109.431 22.171 108.954 23.92 108.778 26.358H118.159V25.987ZM141.466 6.271C147.225 6.271 151.836 7.57833 155.299 10.193C158.797 12.7723 160.546 17.5247 160.546 24.45C160.546 31.2693 158.85 36.0747 155.458 38.866C152.066 41.622 147.667 43 142.261 43H131.237V6.271H141.466ZM139.929 12.578V36.693H142.791C145.653 36.693 147.826 35.8097 149.31 34.043C150.794 32.241 151.536 29.0433 151.536 24.45C151.536 21.3053 151.165 18.8673 150.423 17.136C149.681 15.4047 148.674 14.221 147.402 13.585C146.13 12.9137 144.558 12.578 142.685 12.578H139.929ZM190.139 28.372C190.139 29.538 190.086 30.545 189.98 31.393H172.543C172.826 33.7603 173.497 35.421 174.557 36.375C175.617 37.329 177.084 37.806 178.956 37.806C180.087 37.806 181.182 37.6117 182.242 37.223C183.302 36.799 184.451 36.163 185.687 35.315L189.132 39.979C185.846 42.5937 182.189 43.901 178.161 43.901C173.603 43.901 170.105 42.5583 167.667 39.873C165.229 37.1877 164.01 33.5837 164.01 29.061C164.01 26.199 164.523 23.6373 165.547 21.376C166.572 19.0793 168.074 17.2773 170.052 15.97C172.031 14.6273 174.398 13.956 177.154 13.956C181.218 13.956 184.398 15.228 186.694 17.772C188.991 20.316 190.139 23.8493 190.139 28.372ZM181.924 25.987C181.854 21.6763 180.334 19.521 177.366 19.521C175.918 19.521 174.787 20.051 173.974 21.111C173.197 22.171 172.72 23.92 172.543 26.358H181.924V25.987ZM218.651 14.857L209.8 43H199.889L190.826 14.857H199.942L204.924 36.64L210.118 14.857H218.651Z" fill="#fff"/>
</svg>
